<?xml version="1.0" standalone="no"?>
<!DOCTYPE svg PUBLIC "-//W3C//DTD SVG 20010904//EN"
 "http://www.w3.org/TR/2001/REC-SVG-20010904/DTD/svg10.dtd">
<svg version="1.0" xmlns="http://www.w3.org/2000/svg"
 width="168.000000pt" height="53.000000pt" viewBox="0 0 168.000000 53.000000"
 preserveAspectRatio="xMidYMid meet">
<metadata>
Created by potrace 1.14, written by Peter Selinger 2001-2017
</metadata>
<g transform="translate(0.000000,53.000000) scale(0.100000,-0.100000)"
fill="#000000" stroke="none">
<path d="M81 512 c-71 -35 -76 -53 -76 -247 0 -194 5 -212 76 -247 31 -17 89
-18 759 -18 670 0 728 1 759 18 71 35 76 53 76 247 0 194 -5 212 -76 247 -31
17 -89 18 -759 18 -670 0 -728 -1 -759 -18z m1520 -61 c19 -20 29 -40 29 -60
0 -31 -1 -31 -52 -32 -29 0 -47 -3 -40 -6 17 -7 15 -60 -4 -71 -14 -8 -14 -10
0 -21 9 -8 16 -24 16 -37 0 -13 5 -24 10 -24 6 0 10 5 10 10 0 6 4 10 9 10 5
0 7 -9 4 -20 -11 -41 -83 -37 -83 5 0 31 -10 55 -22 55 -7 0 -8 -17 -5 -45 l7
-45 -40 0 c-29 0 -40 4 -40 15 0 8 4 15 10 15 6 0 9 27 7 65 -1 36 -5 65 -9
65 -5 0 -8 7 -8 15 0 8 -7 15 -15 15 -10 0 -15 -10 -15 -30 0 -32 -23 -42 -34
-15 -3 8 -17 15 -31 15 -20 0 -25 -5 -25 -25 0 -27 15 -34 24 -10 11 30 26 14
26 -30 0 -47 -14 -60 -25 -25 -8 26 -25 16 -25 -16 0 -19 5 -24 25 -24 14 0
29 8 35 20 16 31 30 24 30 -15 l0 -35 -80 0 c-78 0 -91 5 -69 27 5 5 9 38 7
74 -2 49 -7 64 -18 64 -12 0 -16 -17 -18 -82 -3 -80 -4 -83 -27 -83 -19 0 -32
14 -64 67 l-41 68 0 -52 c0 -29 5 -53 10 -53 6 0 10 -7 10 -15 0 -10 -11 -15
-35 -15 -34 0 -46 12 -25 25 13 8 13 135 0 135 -5 0 -10 8 -10 17 0 15 -2 14
-15 -3 -17 -22 -21 -144 -5 -144 6 0 10 -7 10 -15 0 -11 -12 -15 -45 -15 -42
0 -58 11 -35 25 16 10 12 124 -5 141 -13 13 -15 12 -21 -11 -4 -15 -4 -56 -1
-91 l5 -64 -39 0 c-28 0 -39 4 -39 15 0 8 5 15 10 15 6 0 10 24 9 53 l0 52
-21 -68 c-18 -58 -24 -68 -42 -65 -16 2 -25 16 -38 63 l-16 60 -1 -47 c-1 -26
4 -50 9 -53 21 -13 9 -25 -25 -25 -34 0 -46 12 -25 25 6 3 10 35 10 71 0 36
-4 64 -10 64 -5 0 -10 7 -10 15 0 10 -10 15 -32 15 -25 0 -29 -3 -20 -12 18
-18 15 -55 -6 -68 -12 -8 -13 -13 -4 -16 6 -3 12 -19 12 -35 0 -29 14 -40 23
-16 2 6 8 8 13 4 13 -13 -11 -42 -38 -45 -30 -4 -45 13 -50 53 -4 38 -22 39
-26 3 -2 -16 1 -28 7 -28 6 0 11 -7 11 -15 0 -11 -12 -15 -45 -15 -33 0 -45 4
-45 15 0 8 5 15 10 15 6 0 10 28 10 65 0 37 -4 65 -10 65 -5 0 -10 7 -10 15 0
8 -4 15 -10 15 -5 0 -10 -13 -10 -30 0 -32 -26 -43 -36 -15 -4 8 -17 15 -30
15 -19 0 -24 -5 -24 -25 0 -27 15 -34 24 -10 11 30 26 14 26 -30 0 -51 -4 -54
-31 -22 l-18 22 -1 -32 c0 -28 3 -33 25 -33 14 0 29 8 35 20 18 33 37 25 32
-15 l-4 -35 -79 0 c-73 0 -96 9 -68 25 10 7 7 63 -7 138 -7 35 -24 25 -24 -14
0 -33 -19 -39 -27 -9 -3 11 -12 20 -19 20 -11 0 -14 -16 -14 -65 0 -51 3 -65
15 -65 8 0 15 -7 15 -15 0 -12 -13 -15 -55 -15 -52 0 -73 14 -40 26 21 8 22
134 1 134 -7 0 -16 -9 -19 -20 -8 -33 -27 -23 -27 15 0 31 -3 35 -25 35 -37 0
-35 52 4 91 l29 29 732 0 732 0 29 -29z"/>
</g>
</svg>
